<?xml version="1.0" encoding="UTF-8"?>
<svg width="59px" height="56px" viewBox="0 0 59 56" version="1.1" xmlns="http://www.w3.org/2000/svg" xmlns:xlink="http://www.w3.org/1999/xlink">
    <!-- Generator: Sketch 59.1 (86144) - https://sketch.com -->
    <title>Group</title>
    <desc>Created with Sketch.</desc>
    <g id="Page-1" stroke="none" stroke-width="1" fill="none" fill-rule="evenodd">
        <g id="Desktop-1440-+-Copy-6" transform="translate(-1111.000000, -261.000000)">
            <g id="Group" transform="translate(1098.673316, 247.782695)">
                <circle id="Oval-Copy" stroke="#FFFFFF" fill="#9EDFF1" cx="40.9955742" cy="40.2173052" r="21"></circle>
                <circle id="Oval-Copy" cx="40.9955742" cy="40.2173052" r="40"></circle>
                <g id="Group-2" transform="translate(50.718802, 14.000000)">
                    <path d="M18.4584935,26.3322351 C18.4584935,14.2187907 10.7662495,3.90196618 -1.42108547e-13,-2.27373675e-13" id="Path" stroke="#FFFFFF"></path>
                    <polygon id="Path-4-Copy" fill="#FFFFFF" transform="translate(18.433639, 25.777558) rotate(89.000000) translate(-18.433639, -25.777558) " points="15.9336385 24.2775583 15.9336385 27.2775583 20.9336385 25.7775583"></polygon>
                </g>
                <g id="Group-2" transform="translate(41.361242, 63.008447) rotate(120.000000) translate(-41.361242, -63.008447) translate(31.361242, 48.508447)">
                    <path d="M18.4584935,26.3322351 C18.4584935,14.2187907 10.7662495,3.90196618 -1.42108547e-13,-2.27373675e-13" id="Path" stroke="#FFFFFF"></path>
                    <polygon id="Path-4-Copy" fill="#FFFFFF" transform="translate(18.433639, 25.777558) rotate(89.000000) translate(-18.433639, -25.777558) " points="15.9336385 24.2775583 15.9336385 27.2775583 20.9336385 25.7775583"></polygon>
                </g>
                <g id="Group-2" transform="translate(21.000000, 29.475400) rotate(240.000000) translate(-21.000000, -29.475400) translate(11.000000, 14.975400)">
                    <path d="M18.4584935,26.3322351 C18.4584935,14.2187907 10.7662495,3.90196618 -1.42108547e-13,-2.27373675e-13" id="Path" stroke="#FFFFFF"></path>
                    <polygon id="Path-4-Copy" fill="#FFFFFF" transform="translate(18.433639, 25.777558) rotate(89.000000) translate(-18.433639, -25.777558) " points="15.9336385 24.2775583 15.9336385 27.2775583 20.9336385 25.7775583"></polygon>
                </g>
            </g>
        </g>
    </g>
</svg>