<?xml version="1.0" encoding="UTF-8"?>
<svg width="80px" height="80px" viewBox="0 0 80 80" version="1.1" xmlns="http://www.w3.org/2000/svg" xmlns:xlink="http://www.w3.org/1999/xlink">
    <!-- Generator: Sketch 59.1 (86144) - https://sketch.com -->
    <title>Artboard</title>
    <desc>Created with Sketch.</desc>
    <g id="Artboard" stroke="none" stroke-width="1" fill="none" fill-rule="evenodd">
        <g id="Group-Copy" transform="translate(-1.000000, 0.000000)">
            <circle id="Oval-Copy" stroke="#FFFFFF" fill="#9EDFF1" cx="40.9955742" cy="40.2173052" r="21"></circle>
            <circle id="Oval-Copy" cx="40.9955742" cy="40.2173052" r="40"></circle>
            <g id="Group-3" transform="translate(38.000000, 54.217305)">
                <polygon id="Path-4-Copy" fill="#FFFFFF" transform="translate(2.500000, 22.500000) rotate(89.000000) translate(-2.500000, -22.500000) " points="0 21 0 24 5 22.5"></polygon>
                <line x1="2.5" y1="0.782694818" x2="2.5" y2="20.7826948" id="Line-2" stroke="#FFFFFF" stroke-linecap="square"></line>
            </g>
            <g id="Group-3-Copy" transform="translate(63.500000, 26.000000) rotate(-120.000000) translate(-63.500000, -26.000000) translate(61.000000, 13.000000)">
                <polygon id="Path-4-Copy" fill="#FFFFFF" transform="translate(2.500000, 22.500000) rotate(89.000000) translate(-2.500000, -22.500000) " points="0 21 0 24 5 22.5"></polygon>
                <line x1="2.5" y1="0.782694818" x2="2.5" y2="20.7826948" id="Line-2" stroke="#FFFFFF" stroke-linecap="square"></line>
            </g>
            <g id="Group-3" transform="translate(18.079105, 26.012184) rotate(-240.000000) translate(-18.079105, -26.012184) translate(15.579105, 13.012184)">
                <polygon id="Path-4-Copy" fill="#FFFFFF" transform="translate(2.500000, 22.500000) rotate(89.000000) translate(-2.500000, -22.500000) " points="0 21 0 24 5 22.5"></polygon>
                <line x1="2.5" y1="0.782694818" x2="2.5" y2="20.7826948" id="Line-2" stroke="#FFFFFF" stroke-linecap="square"></line>
            </g>
        </g>
    </g>
</svg>