<?xml version="1.0" encoding="UTF-8"?>
<svg width="80px" height="80px" viewBox="0 0 80 80" version="1.1" xmlns="http://www.w3.org/2000/svg" xmlns:xlink="http://www.w3.org/1999/xlink">
    <!-- Generator: Sketch 59.1 (86144) - https://sketch.com -->
    <title>implement_icon</title>
    <desc>Created with Sketch.</desc>
    <g id="implement_icon" stroke="none" stroke-width="1" fill="none" fill-rule="evenodd">
        <circle id="Oval-Copy" fill="#001F57" cx="40" cy="40" r="31"></circle>
        <g id="Green" transform="translate(10.440962, 13.329279)" fill="#51D716">
            <path d="M37.297431,53.9749806 C37.297431,47.9610615 39.532351,45.3225579 34.5456946,42.4342232 C29.5590382,39.5458884 33.3801159,25.5014283 39.0453498,30.4198651 C44.7105838,35.3383019 54.537572,31.661718 54.537572,36.6707208 C54.537572,41.6797236 50.4692798,39.8827383 50.4692798,43.6707208 C50.4692798,47.4587034 52.8175121,49.0676489 50.4692798,50.6707208 C48.1210475,52.2737928 36.0761346,58.8251182 37.297431,53.9749806 Z" id="Path-4"></path>
            <path d="M54.537572,11.0732349 C51.1969053,11.1961319 49.5265719,12.6597705 49.5265719,15.4641507 C49.5265719,19.6707208 36.7959716,21.4530341 38.2554164,25.4187504 C39.7148612,29.3844667 43.3865899,30.6707208 43.3865899,26.6707208 C43.3865899,22.6707208 43.1498802,31.1927238 46.338226,31.1927238 C49.5265719,31.1927238 54.1178918,35.6198377 56.0976682,39.0893626 C57.4175191,41.4023792 58.9046425,36.7330246 60.5590382,25.0812987 L58.1718052,14.166467 L54.537572,11.0732349 Z" id="Path-5"></path>
            <path d="M41.069098,17.7236662 C38.512661,16.8763397 37.5359217,16.8763397 38.1388801,17.7236662 C39.0433176,18.9946561 44.0630543,20.7138245 44.0630543,18.5060795 C44.0630543,16.2983345 41.7289354,11.2219712 41.7289354,13.7601528 C41.7289354,15.4522739 41.5089896,16.7734451 41.069098,17.7236662 Z" id="Path-6"></path>
            <path d="M5.85739538,43.7035143 C5.02963487,35.7408082 5.62030046,31.7594551 7.62939214,31.7594551 C10.6430297,31.7594551 18.1671102,27.6806169 10.0263527,21.4544583 C1.88559515,15.2282998 9.86614097,16.9103793 10.5746635,18.2395203 C11.2831859,19.5686614 15.7477062,23.0861888 13.1611848,17.0797119 C10.5746635,11.0732349 16.7583521,20.7587114 21.5871468,9.14923219 C26.4159416,-2.46024699 16.1095637,12.8941809 16.7476483,3.58394696 C17.173038,-2.62287568 13.1233187,-0.767780607 4.59849043,9.14923219 L-3.19744231e-14,21.8517572 L-3.19744231e-14,32.8194765 L1.03481572,41.3870049 L5.85739538,43.7035143 Z" id="Path-7"></path>
        </g>
        <circle id="Oval-Copy" stroke="#FFFFFF" stroke-width="3" cx="40" cy="40" r="31"></circle>
        <g id="Pole" transform="translate(28.790708, 1.914256)">
            <path d="M12.2530426,8.45468756 C11.4908798,12.3749153 20.8969976,17.0718634 24.0804891,12.4503074 C25.6426799,10.0367753 13.0152054,4.53445983 12.2530426,8.45468756 Z" id="Path-8" fill="#FFFFFF"></path>
            <line x1="21.4861869" y1="0" x2="0" y2="72.5947664" id="Path-9" stroke="#FFFFFF" stroke-width="3" stroke-linecap="round" stroke-dasharray="5,5"></line>
        </g>
    </g>
</svg>