<?xml version="1.0" encoding="UTF-8"?>
<svg width="100px" height="100px" viewBox="0 0 100 100" version="1.1" xmlns="http://www.w3.org/2000/svg" xmlns:xlink="http://www.w3.org/1999/xlink">
    <!-- Generator: Sketch 57.1 (83088) - https://sketch.com -->
    <title>DVF_V</title>
    <desc>Created with Sketch.</desc>
    <g id="DVF_V" stroke="none" stroke-width="1" fill="none" fill-rule="evenodd">
        <g id="Group" transform="translate(10.000000, 10.000000)">
            <path d="M40,0 C53.8071187,0 65,11.1928813 65,25 C65,38.8071187 53.8071187,50 40,50 C26.1928813,50 15,38.8071187 15,25 C15,11.1928813 26.1928813,0 40,0 Z M40,2 C27.2974508,2 17,12.2974508 17,25 C17,37.7025492 27.2974508,48 40,48 C52.7025492,48 63,37.7025492 63,25 C63,12.2974508 52.7025492,2 40,2 Z" id="Combined-Shape" fill="#EFF3F3"></path>
            <path d="M25,30 C38.8071187,30 50,41.1928813 50,55 C50,68.8071187 38.8071187,80 25,80 C11.1928813,80 0,68.8071187 0,55 C0,41.1928813 11.1928813,30 25,30 Z M25,32 C12.2974508,32 2,42.2974508 2,55 C2,67.7025492 12.2974508,78 25,78 C37.7025492,78 48,67.7025492 48,55 C48,42.2974508 37.7025492,32 25,32 Z" id="Combined-Shape-Copy" fill="#FBE612"></path>
            <path d="M55,30 C68.8071187,30 80,41.1928813 80,55 C80,68.8071187 68.8071187,80 55,80 C41.1928813,80 30,68.8071187 30,55 C30,41.1928813 41.1928813,30 55,30 Z M55,32 C42.2974508,32 32,42.2974508 32,55 C32,67.7025492 42.2974508,78 55,78 C67.7025492,78 78,67.7025492 78,55 C78,42.2974508 67.7025492,32 55,32 Z" id="Combined-Shape-Copy-2" fill="#EFF3F3"></path>
        </g>
    </g>
</svg>